<svg width="800" height="800" viewBox="0 0 800 800" xmlns="http://www.w3.org/2000/svg">
  <!-- Dark background -->
  <rect width="800" height="800" fill="#1a1a1a"/>
  
  <!-- Abstract silhouette -->
  <path d="M400 180 C320 180, 260 240, 260 320 C260 380, 300 430, 360 450 L360 520 L440 520 L440 450 C500 430, 540 380, 540 320 C540 240, 480 180, 400 180 Z" fill="#333"/>
  
  <!-- Shoulders/body -->
  <path d="M280 520 L520 520 L540 800 L260 800 Z" fill="#333"/>
  
  <!-- Microphone -->
  <rect x="380" y="520" width="40" height="120" fill="#555"/>
  <ellipse cx="400" cy="520" rx="30" ry="20" fill="#777"/>
  
  <!-- Abstract stage lighting -->
  <circle cx="200" cy="100" r="80" fill="#ff3333" opacity="0.3"/>
  <circle cx="600" cy="100" r="80" fill="#3333ff" opacity="0.3"/>
  
  <!-- Artist name -->
  <text x="400" y="700" font-family="Arial, sans-serif" font-size="48" font-weight="bold" text-anchor="middle" fill="#ffffff">LIL BABY</text>
</svg>